# xmcd
#
# Track frame offsets: 
#        150
#        16426
#        32181
#        48543
#        64784
#        83545
#        101019
#        116815
#        133530
#        149435
#        176697
#
# Disc length: 2548 seconds
#
# Revision: 0
# Processed by: cddbd v1.5.2PL0 Copyright (c) Steve Scherf et al.
# Submitted via: ExactAudioCopyFreeDBPlugin 1.0
#
DISCID=9909f20b
DTITLE=Hush - Sand
DYEAR=2018
DGENRE=Pop
TTITLE0=Home
TTITLE1=Sing
TTITLE2=Sand
TTITLE3=Letting Go of a Dream
TTITLE4=Try
TTITLE5=Back in Place
TTITLE6=I Grew Up in This House
TTITLE7=Friends Forever
TTITLE8=You
TTITLE9=Blue Blue Water
TTITLE10=How It Feels to Begin
EXTD=\n
EXTT0=
EXTT1=
EXTT2=
EXTT3=
EXTT4=
EXTT5=
EXTT6=
EXTT7=
EXTT8=
EXTT9=
EXTT10=
PLAYORDER=
